<?xml version="1.0" encoding="UTF-8"?> <svg xmlns="http://www.w3.org/2000/svg" width="600" height="240" viewBox="0 0 600 240" fill="none"><path d="M16.7941 104.48C12.5559 130.676 25.5078 146.908 50.2642 146.908C75.0167 146.908 93.4584 130.676 97.7216 104.48C101.989 78.2607 88.815 62 64.0335 62C39.2521 62 21.0323 78.2605 16.7941 104.48Z" fill="#EC1E24"></path><path d="M114.761 113.781L136.159 76.5896L142.588 113.781H114.761ZM97.1293 138.578H100.436L113.108 116.72H143.046L146.905 138.578H149.842L138.455 72.5493H135.333L97.1293 138.578Z" fill="black"></path><path d="M182.808 140.14C168.85 140.14 159.207 129.577 159.207 111.946C159.105 100.686 163.123 89.7776 170.504 81.2738C173.18 78.1774 176.494 75.6962 180.219 74.0001C183.943 72.3041 187.99 71.4332 192.083 71.4474C205.677 71.4474 214.491 79.5294 214.491 92.6616V93.3053H211.552V92.9361C211.552 81.365 203.839 74.0185 192.268 74.0185C176.106 74.0185 162.33 90.2724 162.33 112.038C162.33 128.108 170.687 137.382 183.543 137.382C194.379 137.382 203.746 130.68 208.247 119.109H211.461C206.409 132.608 196.125 140.14 182.808 140.14Z" fill="black"></path><path d="M231.755 72.5497H265.916L265.365 75.3953H234.233L228.356 103.129H259.488L258.845 105.884H227.805L221.468 135.732H257.008L256.366 138.578H217.795L231.755 72.5497Z" fill="black"></path><path d="M277.945 72.5497H298.608L295.303 94.1299L316.517 72.5497H341.311L313.117 99.6395L332.768 138.578H309.997L298.15 113.781L291.17 120.485L288.507 138.578H267.846L277.945 72.5497Z" fill="black"></path><path d="M357.997 117.364L368.101 92.9363L371.587 117.364H357.997ZM328.059 138.578H349.459L352.764 130.68H373.793L374.803 138.578H394.729L381.506 72.5495H360.384L328.059 138.578Z" fill="black"></path><path d="M425.585 100.743L427.513 88.2526H436.422C442.206 88.2526 444.871 89.8135 444.871 93.9457C444.871 98.7218 441.84 100.743 435.596 100.743H425.585ZM399.597 138.578H419.986L423.564 114.792H428.983C436.607 114.792 439.819 116.539 439.819 122.414C439.841 123.398 439.781 124.381 439.638 125.355L438.72 131.965C438.565 133.184 438.472 134.411 438.443 135.64C438.43 136.626 438.523 137.612 438.72 138.578H461.034V136.831C460.371 136.622 459.804 136.184 459.434 135.596C459.064 135.007 458.915 134.307 459.013 133.619C459.029 132.88 459.09 132.144 459.198 131.413L459.931 124.711C460.106 123.309 460.199 121.898 460.208 120.486C460.208 114.609 457.914 111.302 452.033 109.007C455.847 107.625 459.123 105.064 461.386 101.696C463.648 98.3279 464.779 94.327 464.616 90.2728C464.616 77.7838 456.718 72.5497 440.004 72.5497H409.423L399.597 138.578Z" fill="black"></path><path d="M485.552 89.3549H466.818L469.573 72.5497H527.245L524.4 89.3549H506.493L499.328 138.578H478.299L485.552 89.3549Z" fill="black"></path><path d="M543.959 117.547V117.73C543.959 122.596 547.449 125.262 553.785 125.262C558.471 125.262 560.947 123.334 560.947 119.936C560.947 116.078 556.631 114.977 549.562 111.853C536.427 106.068 529.632 101.202 529.632 90.8239C529.632 78.4264 539.185 70.8044 556.08 70.8044C572.979 70.8044 582.986 78.7943 584 92.2008H564.255C563.703 87.7929 560.946 85.589 555.713 85.589C552.135 85.589 549.743 87.6098 549.743 90.0895C549.743 93.8542 555.162 95.0478 565.998 99.825C576.468 104.414 581.52 110.384 581.52 119.109C581.52 132.242 571.509 140.322 553.141 140.322C534.04 140.322 523.481 131.598 523.481 117.547L543.959 117.547Z" fill="black"></path><path d="M21.7824 159.928H26.4853C28.9169 159.928 30.2152 160.633 30.2152 162.874C30.2152 165.146 28.9445 165.901 26.405 165.901H21.7824V159.928ZM18.5939 157.197V176.63H21.8095V168.632H26.7013C29.2698 168.632 29.6739 169.711 29.7827 171.74L29.8905 174.061C29.8632 174.943 30.029 175.819 30.3763 176.63H33.9977V176.062C33.6681 175.8 33.4179 175.451 33.2749 175.054C33.132 174.658 33.1018 174.23 33.1879 173.818L33.0258 171.033C32.9179 168.928 32.5381 167.736 30.7004 167.142C31.5839 166.784 32.3301 166.153 32.8308 165.342C33.3315 164.53 33.5607 163.58 33.4849 162.63C33.5442 161.898 33.4422 161.162 33.1862 160.474C32.9301 159.786 32.5262 159.162 32.003 158.647C31.4797 158.132 30.8499 157.738 30.1578 157.492C29.4657 157.247 28.7282 157.156 27.9973 157.227C27.8894 157.227 27.5382 157.196 26.9713 157.196L18.5939 157.197Z" fill="#8D8B8B"></path><path d="M72.6997 157.197V160.035H61.9417V165.119H71.8609V167.845H61.9417V173.71H73.0499V176.63H58.7515V157.197H72.6997Z" fill="#8D8B8B"></path><path d="M104.617 160.471L107.507 168.901H101.724L104.617 160.471ZM102.804 157.197L95.697 176.63H99.0751L100.832 171.605H108.4L110.129 176.63H113.587L106.454 157.197H102.804Z" fill="#8D8B8B"></path><path d="M140.451 157.197V173.684H150.046V176.63H137.209V157.197H140.451Z" fill="#8D8B8B"></path><path d="M206.178 157.197V173.684H215.771V176.63H202.934V157.197H206.178Z" fill="#8D8B8B"></path><path d="M242.852 157.197V176.63H239.608V157.197H242.852Z" fill="#8D8B8B"></path><path d="M281.957 157.197V160.035H271.875V165.253H280.715V168.065H271.875V176.63H268.686V157.197H281.957Z" fill="#8D8B8B"></path><path d="M320.196 157.197V160.035H309.44V165.119H319.359V167.845H309.44V173.71H320.548V176.63H306.252V157.197H320.196Z" fill="#8D8B8B"></path><path d="M377.627 159.928H382.331C384.761 159.928 386.061 160.633 386.061 162.874C386.061 165.146 384.789 165.901 382.247 165.901H377.627V159.928ZM374.438 157.197V176.63H377.654V168.632H382.547C385.112 168.632 385.52 169.711 385.625 171.74L385.737 174.061C385.707 174.943 385.873 175.82 386.222 176.63H389.844V176.062C389.513 175.801 389.261 175.452 389.117 175.056C388.974 174.659 388.943 174.23 389.029 173.818L388.868 171.033C388.76 168.928 388.382 167.736 386.546 167.142C387.429 166.783 388.174 166.152 388.674 165.34C389.174 164.529 389.402 163.58 389.327 162.63C389.386 161.898 389.285 161.162 389.029 160.474C388.774 159.786 388.37 159.162 387.847 158.647C387.324 158.132 386.695 157.738 386.003 157.492C385.311 157.247 384.573 157.156 383.843 157.227C383.735 157.227 383.384 157.196 382.817 157.196L374.438 157.197Z" fill="#8D8B8B"></path><path d="M421.409 160.471L424.297 168.901H418.516L421.409 160.471ZM419.596 157.197L412.489 176.63H415.867L417.626 171.605H425.192L426.92 176.63H430.379L423.244 157.197H419.596Z" fill="#8D8B8B"></path><path d="M467.216 163.279C467.043 162.141 466.432 161.116 465.513 160.424C464.593 159.732 463.439 159.428 462.298 159.576C458.569 159.576 456.46 162.226 456.46 166.792C456.46 171.497 458.7 174.25 462.245 174.25C462.881 174.287 463.518 174.197 464.119 173.985C464.72 173.773 465.273 173.444 465.745 173.017C466.218 172.589 466.601 172.072 466.872 171.495C467.143 170.919 467.296 170.294 467.323 169.657H470.485C470.447 170.707 470.197 171.737 469.752 172.688C469.306 173.639 468.674 174.49 467.892 175.192C467.11 175.893 466.195 176.429 465.202 176.769C464.208 177.109 463.156 177.245 462.109 177.17C456.567 177.17 453.162 173.305 453.162 166.927C453.162 160.47 456.594 156.684 462.352 156.684C467.08 156.684 470.053 159.225 470.404 163.278L467.216 163.279Z" fill="#8D8B8B"></path><path d="M498.569 157.197V176.63H495.322V157.197H498.569Z" fill="#8D8B8B"></path><path d="M527.834 157.197L536.89 171.739V157.197H540.022V176.63H536.616L527.511 162.091V176.63H524.404V157.197H527.834Z" fill="#8D8B8B"></path><path d="M579.291 163.144C579.066 162.034 578.44 161.047 577.533 160.369C576.626 159.691 575.502 159.371 574.374 159.468C570.506 159.468 568.239 162.145 568.239 166.846C568.239 171.605 570.668 174.25 574.293 174.25C575.016 174.283 575.738 174.165 576.413 173.904C577.088 173.643 577.702 173.245 578.215 172.734C578.728 172.224 579.129 171.612 579.394 170.939C579.658 170.265 579.779 169.544 579.75 168.821H574.425V166.144H582.724V176.63H580.587L580.047 174.168C579.351 175.127 578.429 175.899 577.364 176.417C576.299 176.936 575.123 177.184 573.939 177.141C568.671 177.141 564.915 173.142 564.915 166.925C564.915 160.658 568.59 156.682 574.154 156.682C578.913 156.682 581.94 159.144 582.508 163.142H579.291" fill="#8D8B8B"></path><path d="M82.5637 109.52C85.6141 120.634 84.3493 126.049 81.1542 127.954C77.8666 129.909 72.5832 129.712 64.4809 128.189C56.3805 126.658 32.7789 119.501 32.7789 119.501C32.7789 119.501 27.8504 113.274 27.8504 99.4198C27.8504 85.5656 42.9948 75.5871 59.0798 77.5819C75.1648 79.5768 78.0998 94.9204 78.0998 94.9204C78.0998 94.9204 61.1166 97.6594 59.0798 97.9737C57.0429 98.288 53.2682 98.9393 53.2682 103.176C53.2682 104.939 54.618 109.694 61.4862 110.399C78.5073 112.146 82.5637 109.52 82.5637 109.52Z" fill="white"></path></svg> 